<svg width="19" height="19" viewBox="0 0 19 19" fill="none" xmlns="http://www.w3.org/2000/svg">
<g clip-path="url(#clip0_42_51506)">
<path d="M18.9558 7.39092L18.956 7.39085L18.9501 7.34215C18.95 7.34132 18.95 7.34068 18.9498 7.33985C18.9498 7.33914 18.9497 7.3385 18.9496 7.3378L18.9275 7.15467C18.9231 7.11789 18.918 7.07599 18.9123 7.02819L18.9077 6.99013L18.8983 6.99128C18.6665 5.6732 18.0298 4.42233 17.0438 3.35426C16.0624 2.29132 14.7873 1.45207 13.3564 0.927232C12.1305 0.477554 10.8297 0.249512 9.49033 0.249512C7.68213 0.249512 5.92603 0.674777 4.41194 1.4793C1.49224 3.03062 -0.229707 5.88208 0.0247988 8.74379C0.156537 10.2246 0.736671 11.6342 1.70254 12.8203C2.61163 13.9367 3.84142 14.8376 5.25888 15.4256C6.13043 15.7871 6.99217 15.9575 7.9046 16.1378L8.01141 16.159C8.26265 16.2087 8.33019 16.277 8.34761 16.3041C8.37984 16.3543 8.36299 16.4533 8.35005 16.5078C8.33813 16.5581 8.32583 16.6083 8.31353 16.6585C8.21556 17.058 8.11425 17.4712 8.19383 17.9267C8.28533 18.4503 8.61231 18.7506 9.09095 18.7507H9.09107C9.60592 18.7507 10.1919 18.4053 10.5796 18.1768L10.6314 18.1464C11.5564 17.6032 12.4278 16.9904 13.0836 16.5173C14.5187 15.4819 16.1453 14.3083 17.3647 12.7901C18.5927 11.2609 19.1712 9.29593 18.9558 7.39092ZM5.91687 10.288H4.27771C4.02999 10.288 3.82918 10.0872 3.82918 9.83947V6.39891C3.82918 6.15119 4.02999 5.95038 4.27771 5.95038C4.52542 5.95038 4.72623 6.15119 4.72623 6.39891V9.39095H5.91681C6.16452 9.39095 6.36533 9.59176 6.36533 9.83947C6.36539 10.0872 6.16458 10.288 5.91687 10.288ZM7.62684 9.8273C7.62684 10.075 7.42602 10.2758 7.17831 10.2758C6.9306 10.2758 6.72979 10.075 6.72979 9.8273V6.38673C6.72979 6.13902 6.9306 5.93821 7.17831 5.93821C7.42602 5.93821 7.62684 6.13902 7.62684 6.38673V9.8273ZM11.6811 9.8273C11.6811 10.0216 11.556 10.1939 11.3711 10.2539C11.3255 10.2687 11.2788 10.2759 11.2326 10.2759C11.0917 10.2759 10.9557 10.2093 10.8696 10.0908L9.25447 7.86635V9.82736C9.25447 10.0751 9.05366 10.2759 8.80594 10.2759C8.55823 10.2759 8.35742 10.0751 8.35742 9.82736V6.48522C8.35742 6.29088 8.48256 6.11864 8.66741 6.05861C8.85233 5.99863 9.05474 6.06437 9.16893 6.22168L10.7841 8.44616V6.38673C10.7841 6.13902 10.9849 5.93821 11.2326 5.93821C11.4803 5.93821 11.6811 6.13902 11.6811 6.38673V9.8273ZM14.9494 10.2052H12.7295C12.4818 10.2052 12.281 10.0044 12.281 9.75669V8.03647V6.31612C12.281 6.06841 12.4818 5.8676 12.7295 5.8676H14.8805C15.1282 5.8676 15.329 6.06841 15.329 6.31612C15.329 6.56384 15.1282 6.76465 14.8805 6.76465H13.178V7.58795H14.5596C14.8073 7.58795 15.0081 7.78876 15.0081 8.03647C15.0081 8.28418 14.8073 8.48499 14.5596 8.48499H13.178V9.30816H14.9494C15.1971 9.30816 15.3979 9.50897 15.3979 9.75669C15.3979 10.0044 15.1971 10.2052 14.9494 10.2052Z" fill="white"/>
</g>
<defs>
<clipPath id="clip0_42_51506">
<rect width="19" height="19" fill="white"/>
</clipPath>
</defs>
</svg>
