<svg width="131" height="34" viewBox="0 0 131 34" fill="none" xmlns="http://www.w3.org/2000/svg">
<g clip-path="url(#clip0_42_51599)">
<path d="M0 2.79311H22.5204C24.4907 2.79311 24.8591 1.45691 24.8591 1.45691C24.8591 1.45691 27.8123 8.85932 19.6938 8.85932H9.72172V15.5375H22.6442V21.2444H10.0916V33.9944H0V2.79311Z" fill="white"/>
<path d="M51.8108 23.9196C51.8108 23.9196 52.303 21.4915 51.8108 19.0633C51.3186 16.513 49.9615 9.10638 38.8883 9.59201C27.8152 10.0776 25.5974 14.9354 25.5974 21.6136C25.5974 28.2917 27.5662 34.1193 39.8727 33.9986C52.1792 33.8779 50.9487 26.1064 50.9487 26.1064C50.9487 26.1064 48.3654 29.1409 41.227 29.1409C34.0886 29.263 34.7046 23.9196 34.7046 23.9196H51.8108ZM39.2582 14.8133C43.5657 15.421 42.9568 20.0345 42.9568 20.0345H34.9507C34.9507 19.9138 34.4585 14.6926 39.2582 14.8133Z" fill="white"/>
<path d="M80.8535 23.9196C80.8535 23.9196 81.3458 21.4915 80.8535 19.0633C80.3613 16.6351 79.0042 9.1064 67.9325 9.59203C56.8608 10.0777 54.6416 14.9354 54.6416 21.6136C54.6416 28.2917 56.4909 34.1194 68.7931 33.9986C81.0954 33.8779 79.8677 26.1064 79.8677 26.1064C79.8677 26.1064 77.2829 29.0202 70.146 29.1409C63.009 29.2616 63.6236 23.9196 63.6236 23.9196H80.8535ZM68.1786 14.8133C72.4861 15.421 71.8701 20.0346 71.8701 20.0346H63.8711C63.8711 19.9139 63.3789 14.6926 68.1786 14.8133Z" fill="white"/>
<path d="M85.1611 0H94.2655V30.842C94.2655 31.9339 95.8644 32.6666 95.8644 32.6666C95.8644 32.6666 94.7577 33.6379 90.9424 33.8807C87.1271 34.1235 85.4044 31.5746 85.282 30.9669C85.1597 30.3591 85.1611 0 85.1611 0Z" fill="white"/>
<path d="M121.833 18.2126C121.833 18.2126 123.064 9.34912 111.741 9.59194C100.419 9.71405 99.6811 15.1781 99.6811 17.1207C99.9272 20.885 103.742 24.0417 109.28 23.7988C114.942 23.6767 114.45 26.4656 114.45 26.4656C114.45 26.4656 114.08 29.0159 110.265 28.7731C107.876 28.6087 105.597 27.7177 103.742 26.2228L98.4506 30.3507C98.4506 30.3507 104.481 34.8421 114.08 33.7515C123.802 32.6582 123.31 25.8593 123.31 25.8593C123.31 25.8593 123.68 19.5432 115.927 19.4239C108.174 19.3046 108.177 16.5129 108.177 16.5129C108.177 16.5129 107.438 14.2069 112.976 14.0848C118.514 13.9626 121.833 18.2126 121.833 18.2126Z" fill="white"/>
<path d="M114.205 5.58483C114.205 5.58483 123.557 5.0992 127.742 7.40947C127.742 7.40947 127.496 5.70975 128.235 5.22412C128.973 4.73848 129.833 5.10201 129.833 5.10201L130.572 4.13074C130.572 4.13074 129.957 5.46693 130.696 6.4382C131.434 7.40947 130.818 10.9296 128.973 12.5086C127.128 14.0876 126.634 18.4583 126.634 18.4583C126.634 18.4583 126.88 15.6667 127.496 13.4813C122.943 6.43539 114.205 5.58483 114.205 5.58483Z" fill="white"/>
</g>
<defs>
<clipPath id="clip0_42_51599">
<rect width="131" height="34" fill="white"/>
</clipPath>
</defs>
</svg>
